<svg xmlns="http://www.w3.org/2000/svg" width="192.804" height="192.803" viewBox="0 0 192.804 192.803">
  <g fill="#515251">
    <circle cx="138.838" cy="137.8" r="11.907"/>
    <path d="M96.402 0C43.161 0 0 43.16 0 96.402c0 53.24 43.161 96.401 96.402 96.401 53.24 0 96.402-43.161 96.402-96.401C192.804 43.16 149.642 0 96.402 0zm57.416 153.132c-12.669 12.667-23.074 5.88-31.807-3.028-8.734-8.911-19.994-23.891-30.4-36.557-10.406-12.668-13.12-9.953-19.228-9.275-37.097 6.334-44.335-26.239-46.372-33.251-2.036-7.012 2.262-15.382 7.691-9.953s19.227 19.228 19.227 19.228l20.811-7.238 7.851-21.423S67.793 37.837 62.364 32.407c-5.429-5.429 3.217-10.004 10.338-8.077 7.122 1.927 40.248 8.612 32.966 46.658-.827 6.256-3.66 9.089 9.056 19.445 12.718 10.357 27.778 21.535 36.691 30.265 8.916 8.728 15.622 19.213 2.403 32.434z"/>
  </g>
</svg>
