<svg xmlns="http://www.w3.org/2000/svg" width="192.804" height="192.803" viewBox="0 0 192.804 192.803">
  <g fill="#515251">
    <path d="M102.161 55.992L152.144 75.5c2.229-6.316 3.717-13.005 3.717-20.25h-53.513c0 .37-.187.557-.187.742zm53.699-2.23c0-7.989-1.673-15.422-4.645-22.297l-49.24 21.367c0 .372.186.559.186.93h53.699zm-4.273 23.226l-49.982-19.696c-.186.187-.371.558-.558.745l37.904 37.902c5.389-5.386 9.663-11.892 12.636-18.951zm-61.131-23.04c0-.372.185-.557.185-.744L40.659 33.508c-2.23 6.318-3.716 13.008-3.716 20.44h53.513zM36.943 55.25c0 7.988 1.672 15.42 4.646 22.295l49.239-21.367c0-.371-.187-.558-.187-.928H36.943zm16.909 40.689L91.757 58.22c-.186-.184-.186-.371-.373-.557L42.146 79.031c2.973 6.319 6.875 12.078 11.706 16.908zm41.806 18.024h.186V60.266c-.371 0-.557-.187-.744-.187l-19.696 49.983c6.319 2.415 13.193 3.901 20.254 3.901zm-21.74-4.272l19.696-49.982c-.186-.188-.557-.373-.743-.559L54.966 97.055c5.389 5.388 11.892 9.664 18.952 12.636zm24.155-49.612c-.371 0-.557.187-.928.187v53.697c7.989 0 15.421-1.672 22.296-4.645L98.073 60.079zm39.764 36.976L99.932 59.15c-.187.186-.37.186-.557.371l21.554 49.238c6.316-2.97 12.076-6.874 16.908-11.704z"/>
    <path d="M96.402 0C43.161 0 0 43.161 0 96.402c0 53.24 43.161 96.4 96.402 96.4 53.242 0 96.402-43.16 96.402-96.4C192.804 43.161 149.644 0 96.402 0zM39.691 30.028c.627-.536 1.264-1.063 1.907-1.583.051-.04.101-.081.151-.121.608-.49 1.225-.971 1.848-1.443l.117-.087c-.913 1.701-1.747 3.448-2.497 5.229l49.982 19.694c.186-.185.372-.557.558-.742L58.509 17.727h.001c.497-.239.999-.472 1.5-.701L92.686 49.86c.186-.187.372-.187.557-.372L76.685 11.332c.524-.119 1.051-.23 1.579-.342l16.465 37.941c.371 0 .558-.186.929-.186V9.107c.249-.003.495-.01.744-.01s.495.007.744.01v39.451c.371 0 .557.188.742.188l14.928-38.102c.497.095.994.191 1.489.294h.002L99.188 49.303c.187.186.557.371.743.558l32.843-32.843c.006.002.014.006.02.01.354.161.705.326 1.057.493.147.069.295.139.44.21l-33.244 33.244c.187.186.187.371.372.558l49.238-21.368c-.57-1.211-1.186-2.395-1.824-3.564.664.5 1.322 1.005 1.971 1.521.109.088.217.176.326.264.58.467 1.154.941 1.722 1.423.079.067.158.134.237.2 1.324 1.133 2.615 2.303 3.869 3.512.003.003.006.004.008.007 2.29 6.579 3.539 13.637 3.539 20.979 0 35.303-28.799 64.104-64.103 64.104-35.304 0-64.104-28.801-64.104-64.104 0-7.34 1.249-14.396 3.538-20.973.031-.029.061-.06.091-.089.248-.239.503-.472.755-.706.362-.342.722-.684 1.09-1.019.625-.565 1.257-1.126 1.898-1.673.007-.007.014-.012.021-.019zM14.766 65.406c.276-.727.563-1.452.859-2.171.008-.021.017-.042.026-.063 1.844-4.477 4.051-8.77 6.583-12.837.012-.019.023-.036.035-.056.415-.666.838-1.326 1.271-1.979.004-.008.009-.015.014-.022 2.648-4.001 5.617-7.77 8.869-11.272.006-.005.012-.013.018-.02.54-.58 1.088-1.15 1.643-1.717-1.884 6.088-2.9 12.549-2.9 19.236 0 36.047 29.357 65.217 65.219 65.217 35.861 0 65.218-29.357 65.218-65.217 0-6.689-1.016-13.151-2.9-19.238.527.539 1.051 1.086 1.566 1.639.009.009.018.018.026.027.512.55 1.015 1.105 1.513 1.668.006.008.014.014.02.021.541.611 1.07 1.234 1.594 1.861 2.895 3.465 5.527 7.154 7.863 11.044.012.02.022.04.035.06.369.615.73 1.236 1.084 1.861.047.084.094.168.141.253.318.563.629 1.132.934 1.704.064.119.126.238.189.357.285.543.566 1.09.842 1.641.068.135.137.273.203.408.268.542.529 1.088.785 1.635.066.141.132.28.197.422.257.557.508 1.117.754 1.68.055.129.113.259.168.389.258.598.508 1.201.754 1.808.037.093.075.183.112.276.243.607.478 1.221.708 1.837.033.09.064.181.098.271-.512.406-1.146.639-1.821.639h-.743c-.186.93-.371 2.045-.557 2.973h.371c1.486.373 2.602 2.046 2.23 3.718-.744 3.157-1.487 6.132-2.602 9.104-.373 1.301-1.486 2.045-2.788 2.045-.186 0-.558 0-.929-.188-.186 0-.186-.186-.371-.186-.372.928-.744 1.857-1.115 2.787.186.186.186.186.371.186 1.673.742 2.23 2.602 1.486 4.088-1.3 2.787-2.786 5.574-4.459 8.176-.557.93-1.672 1.486-2.602 1.486-.557 0-1.114-.186-1.672-.557l-.186-.186c-.558.742-1.115 1.67-1.673 2.414l.187.186c1.301 1.115 1.672 2.975.557 4.273-2.043 2.604-4.087 4.832-6.316 7.063-.744.557-1.487.928-2.23.928-.929 0-1.672-.371-2.229-.928l-.188-.188c-.742.744-1.485 1.303-2.229 2.045l.186.186c.928 1.301.742 3.16-.558 4.273-2.415 1.859-5.017 3.717-7.618 5.389-.558.373-1.115.557-1.672.557-1.115 0-2.045-.557-2.602-1.486-.186-.186-.186-.186-.186-.371-.93.559-1.674.93-2.602 1.486 0 0 .186 0 .186.188.742 1.484 0 3.344-1.486 4.086-2.787 1.301-5.76 2.416-8.733 3.529-.185.188-.557.188-.929.188-1.115 0-2.416-.744-2.787-2.045v-.371c-1.114.186-2.043.557-2.973.744.186.186.186.186.186.371.372 1.672-.557 3.346-2.23 3.717-3.158.557-6.13 1.113-9.289 1.486h-.372c-1.485 0-2.787-1.301-2.973-2.789v-.369c-.929.184-2.044.184-2.973.184v.373c0 1.672-1.302 2.973-2.973 2.973-3.159 0-6.132-.186-9.291-.559-1.672-.186-2.787-1.67-2.602-3.344v-.371c-.929-.188-2.043-.371-2.973-.559v.371c-.372 1.488-1.672 2.416-2.973 2.416h-.743c-3.159-.742-6.132-1.484-9.104-2.6-1.486-.559-2.416-2.23-1.859-3.902 0-.186.186-.186.186-.373-.929-.371-1.858-.742-2.787-1.115-.186.188-.186.188-.186.373-.558 1.115-1.672 1.672-2.787 1.672-.372 0-.929-.186-1.301-.373-2.787-1.299-5.575-2.785-8.176-4.457-1.486-.93-1.858-2.787-.929-4.275l.186-.186c-.744-.557-1.673-1.113-2.416-1.67l-.186.186c-.558.742-1.486 1.113-2.416 1.113-.558 0-1.3-.371-1.858-.742-2.416-2.045-4.832-4.088-7.061-6.318-1.114-1.115-1.114-3.158 0-4.273l.186-.186c-.744-.742-1.3-1.486-2.044-2.23l-.186.186c-.557.559-1.114.744-1.857.744-.93 0-1.858-.371-2.416-1.113-1.858-2.418-3.716-5.02-5.389-7.619-.929-1.486-.557-3.344.93-4.273.186-.186.186-.186.372-.186-.558-.93-.929-1.674-1.486-2.604 0 0 0 .188-.187.188-.371.186-.929.371-1.3.371-1.114 0-2.229-.559-2.787-1.672-1.3-2.975-2.415-5.762-3.53-8.734-.558-1.672.186-3.344 1.858-3.9h.372c-.186-1.115-.558-2.045-.743-2.973-.184.181-.184.181-.37.181h-.743c-1.486 0-2.601-.928-2.973-2.414-.32-1.811-.634-3.563-.918-5.32.022-.066.043-.131.066-.195.241-.691.49-1.379.748-2.061.012-.033.025-.069.038-.104zm156.875 75.297c-.382.646-.772 1.289-1.171 1.926-.016.025-.031.051-.047.076-.408.65-.824 1.297-1.25 1.938-2.163 3.256-4.537 6.357-7.105 9.287l-.006.006c-.493.564-.996 1.121-1.504 1.672-.049.053-.098.105-.146.156-.468.504-.941 1.002-1.42 1.496-.068.07-.137.141-.206.211-.47.479-.944.951-1.424 1.422-.069.068-.14.135-.21.203-.497.482-.999.957-1.508 1.428-.049.045-.098.092-.147.137-2.277 2.096-4.665 4.072-7.155 5.918 0 .002-.001.002-.002.002H44.464s-.001 0-.002-.002c-2.49-1.846-4.878-3.822-7.154-5.918-.05-.045-.099-.092-.148-.137-.508-.471-1.011-.945-1.508-1.428-.07-.068-.14-.135-.209-.203-.48-.471-.955-.943-1.424-1.422-.069-.07-.138-.141-.206-.211-.479-.492-.952-.99-1.418-1.494-.05-.053-.099-.105-.148-.158-.508-.551-1.009-1.105-1.503-1.67-.002-.002-.005-.006-.007-.008-1.765-2.014-3.431-4.113-5.006-6.285-.716-.984-1.42-1.982-2.095-2.996-.002-.006-.005-.01-.008-.014-.421-.637-.835-1.275-1.24-1.924-.019-.029-.039-.061-.058-.092-.394-.629-.78-1.266-1.159-1.908-.018-.029-.035-.059-.052-.088-.389-.66-.77-1.326-1.141-1.998l-.003-.006H172.83c-.373.676-.754 1.348-1.145 2.012-.016.023-.03.047-.044.072z"/>
  </g>
</svg>
