<?xml version="1.0" encoding="utf-8"?>
<!-- Generator: Adobe Illustrator 15.1.0, SVG Export Plug-In . SVG Version: 6.00 Build 0)  -->
<!DOCTYPE svg PUBLIC "-//W3C//DTD SVG 1.1//EN" "http://www.w3.org/Graphics/SVG/1.1/DTD/svg11.dtd">
<svg version="1.1" id="Layer_1" xmlns="http://www.w3.org/2000/svg" xmlns:xlink="http://www.w3.org/1999/xlink" x="0px" y="0px"
	 width="192.805px" height="192.803px" viewBox="0 0 192.805 192.803" enable-background="new 0 0 192.805 192.803"
	 xml:space="preserve">
<path fill="#515251" d="M91.894,24.822c2.298,0,4.161,1.863,4.161,4.161c0,2.299-1.863,4.161-4.161,4.161s-4.161-1.862-4.161-4.161
	C87.733,26.685,89.596,24.822,91.894,24.822z M33.377,67.994c2.586,0,4.682,2.096,4.682,4.681s-2.096,4.681-4.682,4.681
	c-2.585,0-4.681-2.096-4.681-4.681S30.792,67.994,33.377,67.994z M96.401,0C43.161,0,0,43.16,0,96.402
	c0,53.24,43.161,96.401,96.401,96.401c53.242,0,96.402-43.161,96.402-96.401C192.804,43.16,149.644,0,96.401,0z M33.377,48.748
	l-3.641-7.021c0,0,4.423-7.283,15.085-15.345c10.663-8.063,18.985-9.354,18.985-9.354l3.899,4.932c0,0,16.905-7.542,36.411-3.643
	c-0.059,1.639-0.234,3.721-0.475,5.966c-0.824,7.75-2.388,17.442-2.388,17.442S56.523,35.744,42.48,83.598
	c-5.485-0.324-12.867-0.946-17.686-1.373c-2.947-0.261-4.938-0.448-4.938-0.448S22.973,58.891,33.377,48.748z M97.615,173.325
	c-41.224,0-74.643-33.42-74.643-74.643c0-4.201,0.352-8.32,1.019-12.331L45.86,88.54c0,0,10.404-48.896,58.258-42.394
	c2.02-10.4,3.479-17.372,4.33-21.304c36.087,5.25,63.809,36.298,63.809,73.839C172.257,139.906,138.839,173.324,97.615,173.325
	L97.615,173.325z M72.497,156.226c1.58,0,2.861,1.281,2.861,2.861s-1.281,2.86-2.861,2.86s-2.86-1.28-2.86-2.86
	S70.917,156.226,72.497,156.226z M66.295,136.517c1.58,0,2.861,1.281,2.861,2.861s-1.281,2.86-2.861,2.86s-2.86-1.28-2.86-2.86
	S64.715,136.517,66.295,136.517z M56.133,132.928c1.58,0,2.861,1.281,2.861,2.861s-1.281,2.86-2.861,2.86s-2.86-1.28-2.86-2.86
	S54.552,132.928,56.133,132.928z M83.531,154.757c1.58,0,2.861,1.281,2.861,2.861s-1.281,2.86-2.861,2.86s-2.861-1.28-2.861-2.86
	S81.951,154.757,83.531,154.757z M71.867,86.98c2.585,0,4.681,2.096,4.681,4.682c0,2.585-2.096,4.681-4.681,4.681
	s-4.681-2.096-4.681-4.681C67.186,89.075,69.282,86.98,71.867,86.98z M46.993,101.317c1.58,0,2.861,1.281,2.861,2.861
	s-1.281,2.861-2.861,2.861s-2.861-1.281-2.861-2.861S45.413,101.317,46.993,101.317z M97.615,66.954
	c2.585,0,4.681,2.096,4.681,4.681s-2.096,4.681-4.681,4.681s-4.681-2.096-4.681-4.681S95.03,66.954,97.615,66.954z M93.83,151.448
	c1.58,0,2.861,1.281,2.861,2.861s-1.281,2.861-2.861,2.861s-2.86-1.281-2.86-2.861S92.25,151.448,93.83,151.448z M158.213,70.855
	c1.58,0,2.861,1.281,2.861,2.861s-1.281,2.861-2.861,2.861s-2.86-1.281-2.86-2.861S156.633,70.855,158.213,70.855z M82.01,115.588
	c2.585,0,4.682,2.096,4.682,4.682s-2.097,4.683-4.682,4.683c-2.586,0-4.683-2.097-4.683-4.683S79.425,115.588,82.01,115.588z
	 M149.371,64.093c1.58,0,2.861,1.281,2.861,2.861s-1.281,2.86-2.861,2.86s-2.86-1.28-2.86-2.86S147.791,64.093,149.371,64.093z
	 M123.161,35.756c1.58,0,2.861,1.281,2.861,2.861s-1.281,2.86-2.861,2.86s-2.861-1.28-2.861-2.86S121.581,35.756,123.161,35.756z
	 M43.912,92.529c-1.164-1.066-2.975-0.987-4.041,0.177c-1.07,1.165-0.99,2.975,0.175,4.042c1.163,1.068,2.977,0.99,4.042-0.174
	C45.156,95.406,45.077,93.597,43.912,92.529z M114.199,42.232c1.104-1.132,1.078-2.941-0.055-4.045
	c-1.132-1.101-2.945-1.078-4.043,0.056c-1.105,1.131-1.083,2.942,0.051,4.045C111.285,43.39,113.096,43.365,114.199,42.232z
	 M46.484,128.035c1.58,0,2.861,1.28,2.861,2.86s-1.281,2.861-2.861,2.861s-2.861-1.281-2.861-2.861S44.904,128.035,46.484,128.035z
	 M37.609,121.32c1.58,0,2.861,1.281,2.861,2.861s-1.281,2.861-2.861,2.861s-2.861-1.281-2.861-2.861S36.029,121.32,37.609,121.32z
	 M129.606,55.51c1.58,0,2.86,1.281,2.86,2.861s-1.28,2.86-2.86,2.86s-2.861-1.28-2.861-2.86S128.026,55.51,129.606,55.51z
	 M139.749,59.151c1.58,0,2.861,1.281,2.861,2.861s-1.281,2.861-2.861,2.861s-2.86-1.281-2.86-2.861S138.169,59.151,139.749,59.151z
	 M137.992,127.618c1.58,0,2.861,1.28,2.861,2.86s-1.281,2.861-2.861,2.861s-2.861-1.281-2.861-2.861
	S136.412,127.618,137.992,127.618z M153.154,99.345c1.58,0,2.861,1.281,2.861,2.861s-1.281,2.86-2.861,2.86s-2.861-1.28-2.861-2.86
	S151.574,99.345,153.154,99.345z M134.365,137.766c1.579,0,2.86,1.28,2.86,2.86c0,1.579-1.281,2.859-2.86,2.859
	s-2.86-1.28-2.86-2.859C131.505,139.046,132.786,137.766,134.365,137.766z M156.549,109.615c1.58,0,2.861,1.281,2.861,2.861
	s-1.281,2.861-2.861,2.861s-2.86-1.281-2.86-2.861S154.969,109.615,156.549,109.615z M158.113,120.636
	c1.58,0,2.861,1.281,2.861,2.861s-1.281,2.86-2.861,2.86s-2.861-1.28-2.861-2.86S156.533,120.636,158.113,120.636z M148.476,89.635
	c1.58,0,2.861,1.281,2.861,2.862c0,1.58-1.281,2.861-2.861,2.861c-1.581,0-2.862-1.281-2.862-2.861
	C145.614,90.916,146.895,89.635,148.476,89.635z M129.437,147.395c1.579,0,2.859,1.28,2.859,2.86c0,1.579-1.28,2.859-2.859,2.859
	c-1.58,0-2.86-1.28-2.86-2.859C126.577,148.675,127.857,147.395,129.437,147.395z M113.479,115.588c2.586,0,4.682,2.096,4.682,4.682
	s-2.096,4.683-4.682,4.683s-4.683-2.097-4.683-4.683S110.893,115.588,113.479,115.588z M103.578,146.852
	c1.58,0,2.861,1.281,2.861,2.861s-1.281,2.86-2.861,2.86s-2.861-1.28-2.861-2.86S101.998,146.852,103.578,146.852z M123.623,86.98
	c2.586,0,4.682,2.096,4.682,4.682c0,2.585-2.096,4.681-4.682,4.681c-2.585,0-4.681-2.096-4.681-4.681
	C118.942,89.075,121.038,86.98,123.623,86.98z M122.688,156.247c1.579,0,2.859,1.28,2.859,2.859c0,1.58-1.28,2.86-2.859,2.86
	c-1.58,0-2.86-1.28-2.86-2.86C119.828,157.528,121.108,156.247,122.688,156.247z M140.268,98.683
	c0-23.557-19.098-42.653-42.652-42.653c-23.557,0-42.652,19.098-42.652,42.653s19.097,42.653,42.652,42.653
	C121.171,141.336,140.268,122.239,140.268,98.683z M97.615,137.175c-21.259,0-38.492-17.233-38.492-38.492
	c0-21.258,17.233-38.492,38.492-38.492c21.258,0,38.491,17.234,38.491,38.492C136.106,119.942,118.873,137.175,97.615,137.175z
	 M97.615,81.778c9.336,0,16.905,7.569,16.905,16.905c0,9.337-7.569,16.905-16.905,16.905S80.71,108.02,80.71,98.683
	C80.71,89.347,88.279,81.778,97.615,81.778z"/>
</svg>
