<svg xmlns="http://www.w3.org/2000/svg" width="192.804" height="192.803" viewBox="0 0 192.804 192.803">
  <g fill="#515251">
    <path d="M99.749 91.736l35.939-35.94c-5.108-5.109-11.274-9.161-17.97-11.979l-18.674 47.39c.176.176.529.352.705.529zm-23.255 57.08c5.99 2.291 12.508 3.701 19.204 3.701h.176v-50.916c-.352 0-.529-.176-.705-.176l-18.675 47.391zm16.561-48.271l-35.94 35.939c5.108 5.109 11.274 9.162 17.97 11.98l18.675-47.391c-.177-.175-.53-.352-.705-.528zm-1.41-1.408l-46.687 20.26c2.819 5.99 6.519 11.451 11.1 16.031l35.938-35.764c-.175-.176-.175-.351-.351-.527zm1.762-7.754l-20.26-46.686c-5.99 2.818-11.451 6.518-16.032 11.099l35.764 35.94c.176-.177.351-.177.528-.353zm2.29-.703V39.764c-7.4.177-14.623 1.587-21.141 4.404l20.26 46.688c.352-.001.528-.176.881-.176zm-3.7 2.113L56.058 56.854c-5.11 5.109-9.162 11.275-11.98 17.971l47.391 18.674c.176-.179.352-.53.528-.706zm-1.057 4.053H40.025c0 7.576 1.585 14.623 4.404 21.141l46.687-20.26c.001-.352-.176-.528-.176-.881zm0-1.938L43.549 76.232c-2.114 5.99-3.523 12.334-3.523 19.379h50.739c-.001-.351.175-.527.175-.703zm25.369-51.444c-5.989-2.29-12.509-3.7-19.203-3.7v50.74c.353 0 .529.176.704.176l18.499-47.216z"/>
    <path d="M96.402 0C43.161 0 0 43.161 0 96.402c0 53.24 43.161 96.4 96.402 96.4 53.24 0 96.402-43.16 96.402-96.4C192.804 43.161 149.642 0 96.402 0zm75.931 107.77h-.705c-.176.879-.352 1.938-.529 2.818h.354c1.408.352 2.466 1.938 2.113 3.521-.705 2.996-1.409 5.814-2.467 8.633-.352 1.234-1.408 1.938-2.642 1.938-.177 0-.528 0-.882-.176-.176 0-.176-.176-.353-.176-.352.883-.704 1.762-1.056 2.643.176.178.176.178.352.178 1.586.703 2.114 2.465 1.41 3.875-1.233 2.643-2.644 5.285-4.229 7.752-.527.881-1.585 1.408-2.466 1.408-.529 0-1.058-.176-1.586-.527l-.176-.176c-.529.703-1.058 1.586-1.586 2.289l.177.176c1.233 1.059 1.585 2.82.528 4.053-1.938 2.467-3.876 4.58-5.99 6.695-.705.529-1.409.881-2.113.881-.882 0-1.586-.352-2.115-.881l-.176-.176c-.704.705-1.408 1.232-2.114 1.938l.177.176c.881 1.232.705 2.994-.528 4.053-2.29 1.762-4.757 3.523-7.224 5.109-.529.352-1.058.527-1.585.527-1.058 0-1.938-.527-2.468-1.41-.176-.176-.176-.176-.176-.352-.88.529-1.586.881-2.466 1.41 0 0 .176 0 .176.176.704 1.41 0 3.172-1.409 3.875-2.643 1.234-5.462 2.291-8.28 3.348-.177.176-.528.176-.881.176-1.058 0-2.29-.703-2.644-1.938v-.352c-1.057.176-1.938.527-2.818.703.177.178.177.178.177.354.352 1.586-.528 3.17-2.114 3.523-2.995.529-5.813 1.057-8.809 1.408h-.353c-1.409 0-2.643-1.232-2.819-2.641v-.352c-.881.176-1.938.176-2.818.176v.352c0 1.586-1.232 2.818-2.818 2.818-2.995 0-5.814-.176-8.809-.529-1.585-.176-2.643-1.586-2.467-3.17v-.354c-.881-.176-1.938-.352-2.818-.527v.352c-.353 1.41-1.586 2.289-2.82 2.289h-.705c-2.995-.703-5.813-1.406-8.632-2.465-1.41-.527-2.291-2.113-1.763-3.699 0-.176.177-.176.177-.354-.881-.352-1.762-.705-2.643-1.057-.176.176-.176.176-.176.352-.529 1.059-1.586 1.586-2.643 1.586-.353 0-.882-.176-1.234-.352-2.643-1.234-5.285-2.643-7.752-4.229-1.409-.881-1.761-2.643-.881-4.053l.176-.176c-.704-.527-1.586-1.057-2.29-1.586l-.177.176c-.528.707-1.409 1.059-2.29 1.059-.528 0-1.232-.352-1.761-.705-2.291-1.939-4.581-3.877-6.695-5.99-1.057-1.057-1.057-2.994 0-4.051l.177-.176c-.705-.707-1.234-1.41-1.939-2.115l-.176.176c-.529.529-1.057.705-1.762.705-.881 0-1.762-.352-2.291-1.057-1.762-2.291-3.523-4.756-5.108-7.225-.882-1.408-.529-3.17.881-4.051.176-.176.176-.176.352-.176-.529-.883-.881-1.586-1.41-2.467 0 0 0 .176-.176.176-.352.176-.881.354-1.233.354-1.058 0-2.114-.529-2.643-1.586-1.233-2.82-2.291-5.461-3.347-8.281-.529-1.586.176-3.17 1.761-3.699h.353c-.176-1.059-.528-1.938-.705-2.82-.176.178-.176.178-.352.178h-.705c-1.409 0-2.466-.881-2.818-2.291-.529-2.994-1.057-5.813-1.41-8.809-.176-1.586.881-2.994 2.467-3.172h.353c-.177-.879-.177-1.938-.177-2.816h-.352c-1.585 0-2.818-1.234-2.818-2.82 0-2.996.175-5.813.352-8.633.176-1.586 1.585-2.643 3.171-2.467h.352c.176-.881.353-1.938.529-2.818h-.353c-1.409-.352-2.467-1.938-2.114-3.523.705-2.996 1.41-5.813 2.467-8.633.528-1.41 2.114-2.29 3.699-1.762.176 0 .176.176.352.176.353-.88.705-1.762 1.058-2.642-.177-.177-.177-.177-.353-.177-1.409-.705-2.114-2.467-1.409-3.877 1.233-2.642 2.643-5.283 4.229-7.751.881-1.233 2.643-1.762 4.052-.88l.176.176c.529-.705 1.058-1.586 1.586-2.291l-.176-.176c-1.233-1.057-1.585-2.818-.529-4.053 1.938-2.289 3.876-4.58 5.99-6.694 1.057-1.056 2.995-1.056 4.052 0l.176.176c.705-.703 1.41-1.231 2.114-1.938l-.176-.176c-.881-1.233-.704-2.995.529-4.052 2.291-1.762 4.756-3.523 7.223-5.109 1.41-.881 3.171-.529 4.052.881.176.176.176.176.176.354.881-.529 1.585-.882 2.467-1.41 0-.176-.176-.176-.176-.354-.705-1.408 0-3.17 1.409-3.875 2.82-1.232 5.461-2.29 8.281-3.348 1.585-.528 3.17.176 3.699 1.762v.354c.881-.176 1.762-.529 2.643-.706-.176-.176-.176-.176-.176-.352-.353-1.586.528-3.172 2.114-3.523 2.996-.528 5.814-1.058 8.809-1.41 1.586-.176 2.996.882 3.172 2.466v.354c.881-.176 1.938-.176 2.819-.176v-.354c0-1.586 1.233-2.818 2.818-2.818h.177c2.994 0 5.813.177 8.809.528 1.586.177 2.643 1.586 2.466 3.172v.352c.881.177 1.938.353 2.819.528v-.352c.352-1.41 1.938-2.466 3.523-2.114 2.995.704 5.813 1.409 8.633 2.466 1.409.529 2.29 2.115 1.762 3.701-.177.176-.177.176-.177.352.881.353 1.763.704 2.644 1.057.176-.176.176-.176.176-.353.704-1.409 2.467-2.113 3.875-1.409 2.644 1.233 5.285 2.643 7.753 4.229 1.233.881 1.761 2.643.88 4.052l-.176.176c.705.528 1.586 1.059 2.291 1.586 0-.176.176-.352.176-.352 1.057-1.234 2.818-1.586 4.052-.528 2.29 1.938 4.581 3.875 6.694 5.989 1.057 1.058 1.057 2.995 0 4.052l-.176.176c.704.705 1.232 1.41 1.938 2.115l.177-.176c1.233-.882 2.995-.705 4.052.527 1.762 2.29 3.523 4.756 5.108 7.224.882 1.409.528 3.171-.88 4.052-.176 0-.176.176-.352.176.527.882.88 1.586 1.408 2.467 0 0 0-.176.176-.176 1.41-.705 3.171 0 3.877 1.408 1.232 2.819 2.29 5.463 3.348 8.281.527 1.585-.178 3.171-1.762 3.699h-.354c.176.883.529 1.762.705 2.645.176-.178.176-.178.353-.178 1.585-.354 3.171.529 3.523 2.115.528 2.994 1.058 5.813 1.409 8.809.177 1.586-.881 2.996-2.467 3.172h-.353c.177.879.177 1.938.177 2.816h.352c1.586 0 2.819 1.234 2.819 2.82 0 3.172-.176 6.166-.528 9.16-.176 1.586-1.409 2.645-2.819 2.645z"/>
    <path d="M101.863 95.436h50.915c0-7.574-1.586-14.623-4.405-21.141l-46.686 20.26c0 .353.176.529.176.881zm-1.057-2.643c.176.176.176.352.352.529l46.687-20.261c-2.819-5.991-6.519-11.452-11.099-16.208l-35.94 35.94z"/>
    <path d="M96.402 34.304c-34.179 0-61.838 27.835-61.838 61.837 0 34.178 27.836 61.838 61.838 61.838 34.001 0 61.837-27.836 61.837-61.838S130.58 34.304 96.402 34.304zm0 122.618c-33.474 0-60.781-27.309-60.781-60.781 0-33.474 27.307-60.781 60.781-60.781s60.779 27.308 60.779 60.781c0 33.472-27.306 60.781-60.779 60.781z"/>
    <path d="M101.863 97.551l47.392 18.498c2.113-5.99 3.523-12.332 3.523-19.203h-50.739c0 .353-.176.529-.176.705zm-2.643 3.347l20.437 46.686c5.989-2.818 11.452-6.518 16.031-11.1l-35.939-35.939c-.176.176-.353.176-.529.353zm1.586-1.41l35.939 35.939c5.109-5.109 9.161-11.275 11.98-17.971l-47.392-18.674c-.175.179-.351.531-.527.706zm-3.7 2.114v50.916c7.575 0 14.623-1.586 21.142-4.404l-20.26-46.688c-.353 0-.53.176-.882.176z"/>
  </g>
</svg>
