<svg xmlns="http://www.w3.org/2000/svg" width="192.804" height="192.803" viewBox="0 0 192.804 192.803">
  <g fill="#515251">
    <circle cx="91.894" cy="28.983" r="4.161"/>
    <circle cx="33.377" cy="72.675" r="4.681"/>
    <path d="M96.401 0C43.161 0 0 43.16 0 96.402c0 53.24 43.161 96.401 96.401 96.401 53.242 0 96.402-43.161 96.402-96.401C192.804 43.16 149.644 0 96.401 0zM33.377 48.748l-3.641-7.021s4.423-7.283 15.085-15.345c10.663-8.063 18.985-9.353 18.985-9.353l3.9 4.931s16.905-7.542 36.411-3.642c-.059 1.638-.234 3.72-.475 5.965-.824 7.75-2.387 17.443-2.387 17.443S56.523 35.744 42.48 83.598c-5.485-.324-12.867-.946-17.685-1.373-2.948-.261-4.938-.448-4.938-.448s3.116-22.886 13.52-33.029zm64.238 124.577c-41.224 0-74.643-33.419-74.643-74.642 0-4.201.352-8.32 1.019-12.331L45.86 88.54s10.404-48.895 58.258-42.393c2.019-10.401 3.479-17.372 4.33-21.304 36.087 5.25 63.809 36.298 63.809 73.839 0 41.224-33.418 74.643-74.642 74.643z"/>
    <circle cx="72.497" cy="159.087" r="2.861"/>
    <circle cx="66.295" cy="139.378" r="2.861"/>
    <circle cx="56.133" cy="135.789" r="2.861"/>
    <circle cx="83.531" cy="157.618" r="2.861"/>
    <circle cx="71.867" cy="91.661" r="4.681"/>
    <circle cx="46.993" cy="104.178" r="2.861"/>
    <circle cx="97.615" cy="71.635" r="4.681"/>
    <circle cx="93.83" cy="154.31" r="2.861"/>
    <circle cx="158.213" cy="73.716" r="2.861"/>
    <circle cx="82.01" cy="120.27" r="4.682"/>
    <circle cx="149.371" cy="66.954" r="2.861"/>
    <circle cx="123.161" cy="38.617" r="2.861"/>
    <path d="M43.912 92.529c-1.164-1.067-2.975-.988-4.041.176-1.07 1.165-.99 2.975.175 4.042 1.163 1.069 2.976.991 4.042-.173 1.068-1.168.989-2.977-.176-4.045zm70.287-50.297c1.103-1.132 1.078-2.942-.055-4.045-1.132-1.101-2.945-1.078-4.043.055-1.105 1.131-1.083 2.943.051 4.045 1.133 1.103 2.944 1.079 4.047-.055z"/>
    <circle cx="46.484" cy="130.896" r="2.861"/>
    <circle cx="37.609" cy="124.181" r="2.861"/>
    <circle cx="129.606" cy="58.371" r="2.861"/>
    <circle cx="139.749" cy="62.012" r="2.861"/>
    <circle cx="137.992" cy="130.479" r="2.861"/>
    <circle cx="153.154" cy="102.206" r="2.861"/>
    <circle cx="134.365" cy="140.626" r="2.86"/>
    <circle cx="156.549" cy="112.476" r="2.861"/>
    <circle cx="158.113" cy="123.497" r="2.861"/>
    <circle cx="148.476" cy="92.497" r="2.862"/>
    <circle cx="129.437" cy="150.255" r="2.86"/>
    <circle cx="113.479" cy="120.27" r="4.682"/>
    <circle cx="103.578" cy="149.713" r="2.861"/>
    <circle cx="123.623" cy="91.661" r="4.681"/>
    <circle cx="122.688" cy="159.107" r="2.86"/>
    <path d="M140.268 98.683c0-23.557-19.097-42.653-42.652-42.653-23.557 0-42.652 19.097-42.652 42.653 0 23.556 19.096 42.653 42.652 42.653 23.555 0 42.652-19.097 42.652-42.653zm-42.653 38.492c-21.259 0-38.492-17.233-38.492-38.492 0-21.258 17.233-38.492 38.492-38.492 21.258 0 38.491 17.234 38.491 38.492 0 21.259-17.233 38.492-38.491 38.492z"/>
    <circle cx="97.615" cy="98.683" r="16.905"/>
  </g>
</svg>
