<svg xmlns="http://www.w3.org/2000/svg" width="192.804" height="192.803" viewBox="0 0 192.804 192.803">
  <g fill="#515251">
    <circle cx="52.413" cy="96.401" r="16.998"/>
    <circle cx="140.391" cy="96.401" r="16.998"/>
    <path d="M96.401 0C43.161 0 0 43.16 0 96.402c0 53.24 43.161 96.401 96.401 96.401 53.242 0 96.402-43.161 96.402-96.401C192.804 43.16 149.644 0 96.401 0zm19.761 126.768s-11.404-7.799-19.761-7.799c-8.354 0-19.758 7.799-19.758 7.799-34.535 20.889-62.386-5.848-62.386-30.079 0-24.229 25.345-45.674 52.638-35.648 12.378 6.127 21.569 11.976 29.506 11.976 7.938 0 17.128-5.849 29.508-11.976 27.294-10.026 52.637 11.418 52.637 35.648 0 24.231-27.849 50.968-62.384 30.079z"/>
  </g>
</svg>
