<svg xmlns="http://www.w3.org/2000/svg" width="192.804" height="192.803" viewBox="0 0 192.804 192.803">
  <path fill="#515251" d="M96.402 0C43.161 0 0 43.16 0 96.402c0 53.24 43.161 96.401 96.402 96.401 53.242 0 96.402-43.161 96.402-96.401C192.804 43.16 149.644 0 96.402 0zm17.822 176.784H82.601V146.22h31.623v30.564zm30.159-89.051c-2.671 3.809-7.805 8.673-15.399 14.596l-7.488 5.816c-4.08 3.174-6.786 6.875-8.121 11.105-.845 2.68-1.303 6.839-1.372 12.479H83.341c.421-11.915 1.546-20.147 3.374-24.694 1.828-4.549 6.538-9.784 14.13-15.706l7.699-6.029c2.529-1.903 4.568-3.981 6.115-6.24 2.811-3.876 4.217-8.143 4.217-12.796 0-5.357-1.564-10.241-4.694-14.648-3.13-4.405-8.847-6.61-17.145-6.61-8.161 0-13.948 2.715-17.358 8.144-3.411 5.43-5.117 11.071-5.117 16.921H43.998c.846-20.095 7.861-34.336 21.046-42.726 8.319-5.358 18.543-8.039 30.671-8.039 15.934 0 29.171 3.807 39.713 11.422 10.54 7.615 15.812 18.896 15.812 33.844-.001 9.166-2.286 16.886-6.857 23.161z"/>
</svg>
