<?xml version="1.0" encoding="utf-8"?>
<!-- Generator: Adobe Illustrator 15.1.0, SVG Export Plug-In . SVG Version: 6.00 Build 0)  -->
<!DOCTYPE svg PUBLIC "-//W3C//DTD SVG 1.1//EN" "http://www.w3.org/Graphics/SVG/1.1/DTD/svg11.dtd">
<svg version="1.1" id="Layer_1" xmlns="http://www.w3.org/2000/svg" xmlns:xlink="http://www.w3.org/1999/xlink" x="0px" y="0px"
	 width="192.805px" height="192.803px" viewBox="0 0 192.805 192.803" enable-background="new 0 0 192.805 192.803"
	 xml:space="preserve">
<path fill="#515151" d="M52.413,79.403c9.388,0,16.998,7.61,16.998,16.998s-7.61,16.998-16.998,16.998s-16.998-7.61-16.998-16.998
	S43.025,79.403,52.413,79.403z M140.391,79.403c9.388,0,16.998,7.61,16.998,16.998s-7.61,16.998-16.998,16.998
	s-16.998-7.61-16.998-16.998S131.004,79.403,140.391,79.403z M96.401,0C43.161,0,0,43.16,0,96.402
	c0,53.24,43.161,96.401,96.401,96.401c53.242,0,96.402-43.161,96.402-96.401C192.804,43.16,149.644,0,96.401,0z M116.162,126.768
	c0,0-11.404-7.799-19.761-7.799c-8.354,0-19.758,7.799-19.758,7.799c-34.535,20.889-62.387-5.848-62.387-30.079
	c0-24.229,25.346-45.674,52.639-35.647c12.378,6.127,21.568,11.976,29.506,11.976s17.128-5.849,29.508-11.976
	c27.294-10.026,52.637,11.418,52.637,35.647C178.546,120.92,150.697,147.656,116.162,126.768z"/>
</svg>
