<svg xmlns="http://www.w3.org/2000/svg" width="192.804" height="192.803" viewBox="0 0 192.804 192.803">
  <g fill="#515251">
    <path d="M110.474 43.785c-1.684 0-2.951 1.324-3.026 3.008-.083 1.684 1.286 3.135 2.964 3.299 1.893.182 12.19 5.303 16.401 11.281.612.864 1.59 1.332 2.579 1.332.632 0 1.269-.19 1.817-.576 1.426-1.008 1.766-2.97.762-4.4-4.981-7.051-17.222-13.944-21.497-13.944z"/>
    <path d="M96.401 0C43.161 0 0 43.161 0 96.402c0 53.24 43.161 96.4 96.401 96.4 53.242 0 96.402-43.16 96.402-96.4C192.804 43.161 149.644 0 96.401 0zm71.951 94.027c-1.374.523-33.782 12.818-45.265 12.818-.322 0-.563-.043-.858-.057l-7.896 23.68 3.86 1.932c1.556.781 2.193 2.674 1.412 4.23l-2.057 4.105 20.199 17.316c1.324 1.135 1.476 3.127.341 4.445-.618.73-1.501 1.104-2.391 1.104-.725 0-1.456-.252-2.042-.756l-19.007-16.289-1.351 2.693c-.554 1.104-1.665 1.74-2.825 1.74-.474 0-.952-.107-1.406-.334l-12.611-6.307c-1.559-.783-2.195-2.674-1.413-4.232l1.879-3.764-30.017-19.102c-1.457 2.043-2.813 4.055-4.011 5.863-3.81 5.777-5.909 8.955-9.176 8.955-8.412 0-28.377-38.119-28.377-50.447 0-.576.05-1.092.069-1.641.938.436 1.917.902 2.869 1.355 6.136 2.945 13.734 6.59 18.918 6.59h.303c1.748-.051 3.115-1.5 3.065-3.24-.052-1.748-1.426-3.027-3.242-3.064-3.778.125-11.269-3.553-16.313-5.967-1.993-.953-3.57-1.703-4.875-2.27 1.242-6.389 3.758-11.258 6.079-15.672.675-1.285 1.299-2.598 1.937-3.904C45.948 65.178 60.661 77.69 71.615 81.448c.34.115.681.172 1.021.172 1.306 0 2.536-.82 2.99-2.133.561-1.639-.315-3.436-1.962-4.004C65.6 72.718 53.113 63.328 38.23 48.955c6.591-5.013 26.618-17.782 59.632-17.782 31.253 0 63.055 25.937 72.4 59.05.448 1.57-.384 3.222-1.91 3.804z"/>
    <path d="M91.556 100.539c-8.702 0-15.476 5.438-20.785 11.707l28.989 18.443 1.59-3.178c.781-1.557 2.673-2.182 4.23-1.414l3.053 1.527 7.297-21.875c-1.324-.449-2.529-.965-3.722-1.514-3.746-1.727-7.996-3.696-20.652-3.696z"/>
  </g>
</svg>
