<svg xmlns="http://www.w3.org/2000/svg" width="945.375" height="329.034" viewBox="0 0 945.375 329.034">
  <path fill="#f1f1f1" d="M800.93 143.645c.389-25.24-1.947-49.696-17.083-68.329-7.772-8.926-17.479-16.302-27.57-20.57-24.063-8.934-57.074-7.386-77.637 7.769-29.124 22.897-34.951 64.047-24.463 98.994 5.435 22.127 28.351 43.48 50.849 47.748 32.231 6.607 66.396 1.549 86.207-25.23-12.833-8.154-25.636-15.141-39.219-20.582-6.213 9.712-16.303 13.595-27.567 11.656-10.088-1.168-18.25-8.544-22.137-17.861-1.157-3.885-3.498-9.324-.762-13.213h99.382v-.382zm-89.681-53.968c7.772-7.754 22.9-5.037 30.66.782 5.444 6.207 9.323 13.194 9.323 21.349h-50.08c.786-8.155 3.873-15.921 10.097-22.131m-322.624-36.1c7.767 33.774 14.747 67.551 23.677 100.553 10.1-32.613 14.368-67.544 22.91-100.553h55.51l-53.943 175.869c-1.566 8.157-8.933 15.536-16.325 19.024-20.189 5.429-42.304 2.328-66.77 3.107l-14.746-39.215 38.808.392c6.214-3.108 1.955-11.266 1.955-15.527l-46.208-143.65h55.132zm-60.563 141.311c-3.487-39.204 1.173-76.097-3.108-112.191-2.719-8.544-6.978-16.301-17.083-22.127-27.953-12.817-66.773-15.924-95.897-3.878-16.688 8.536-25.623 22.895-24.448 41.539h47.749c.771-5.057.394-9.322 5.824-12.43 7.373-4.647 19.412-5.039 27.562-1.55 7 2.717 8.15 10.471 6.219 17.078-1.173 6.221-7.771 8.157-12.434 10.878-22.125 6.197-46.971 5.439-65.997 18.241-15.518 11.264-18.245 29.896-15.518 48.527 3.489 11.654 13.193 24.072 25.224 27.572 21.734 7.764 52.029 7.372 68.332-11.657 8.152-.38 2.717 10.107 7.757 13.98l46.218-.774c1.925.388-.002-8.54-.4-13.208m-52.403-32.215c-9.326 9.705-19.804 19.407-33.793 16.299-4.646-1.549-9.698-5.036-11.631-10.095-1.957-5.429 0-11.634 3.099-16.302 12.418-9.329 27.958-10.094 42.326-14.75v24.848zM57.075 75.703l55.118.391V0h53.969v208.863h-54.741v-83.067H57.856v83.47L0 208.863V0h57.075m879.356 78.816c5.436 9.704 3.878 17.066 3.878 17.066h-47.758c-1.564-4.265-2.349-9.303-7.001-12.41-7.757-4.271-17.072-4.271-22.893 2.326-3.501 3.112-6.99 9.317-1.556 15.523 11.258 7.77 26.015 6.607 39.229 10.106 18.228 3.489 39.979 15.524 44.644 35.324 1.15 17.85-.392 36.482-14.757 49.309-25.236 15.146-63.292 20.184-91.242 7.767-13.978-4.668-24.45-18.253-28.342-32.228-1.556-5.438-1.935-6.607-.782-10.872h45.816c1.171 5.823 3.109 12.036 9.321 15.521 7.759 3.889 19.431 3.111 25.998-2.316 3.89-3.109 5.442-8.939 4.663-13.204-12.031-15.915-35.335-12.037-52.402-19.033-13.978-3.88-27.182-14.742-31.438-29.108-5.067-18.644.771-37.651 16.3-49.305 24.056-16.693 61.736-14.754 88.502-4.647 15.536 7.755 15.536 12.41 19.82 20.181m-306.718-7.385c7.381 12.818 6.987 28.727 6.987 44.654v91.233h-50.857l-.773-99.379s1.167-15.159-12.821-15.926c-9.695 0-15.909 0-20.953 14.752v100.552h-50.857V53.582h47.753c0 5.437-.784 11.645.77 17.073 14.366-15.915 33.381-26.011 55.139-19.023 10.085 3.108 19.789 10.095 25.612 19.799M412.473 298.56c-.181 1.957.039 3.348.656 4.172 1.03 1.468 3.386 2.201 7.068 2.201 2.163 0 3.952-.321 5.369-.966 1.416-.643 2.266-1.608 2.549-2.896.257-1.236-.064-2.176-.966-2.819s-4.494-1.751-10.776-3.321c-4.506-1.185-7.545-2.666-9.115-4.442-1.597-1.751-2.035-4.273-1.313-7.57.824-3.888 3.058-7.229 6.702-10.022 3.643-2.794 8.233-4.191 13.769-4.191 5.253 0 9.309 1.05 12.167 3.148 2.858 2.099 3.991 5.723 3.399 10.872h-11.008c.129-1.415-.039-2.535-.502-3.36-.902-1.492-2.807-2.239-5.716-2.239-2.395 0-4.178.373-5.35 1.12-1.172.747-1.86 1.622-2.066 2.626-.284 1.262.064 2.176 1.043 2.742.953.593 4.558 1.609 10.815 3.052 4.146 1.03 7.093 2.588 8.845 4.673 1.725 2.112 2.253 4.751 1.583 7.918-.901 4.172-3.18 7.577-6.836 10.216-3.657 2.64-8.729 3.959-15.218 3.959-6.618 0-11.208-1.396-13.77-4.19-2.563-2.794-3.393-6.354-2.491-10.68h11.162zm72.173-24.256c.824 1.571 1.19 3.187 1.101 4.848s-.534 4.371-1.332 8.13l-5.253 24.72h-11.24l5.408-25.607c.488-2.266.502-4.095.038-5.484-.593-1.957-2.292-2.936-5.098-2.936-2.91 0-5.324.972-7.242 2.916-1.919 1.944-3.264 4.719-4.037 8.323l-4.828 22.788h-10.969l12.051-56.738h10.969l-4.287 20.123c2.111-2.446 4.319-4.152 6.624-5.118 2.304-.966 4.616-1.448 6.933-1.448 2.601 0 4.866.451 6.798 1.352 1.93.9 3.385 2.277 4.364 4.131zm19.412 39.165c-7.235 0-12.16-2.195-14.773-6.585-2.613-4.391-3.264-9.676-1.95-15.855 1.287-6.077 4.184-11.343 8.69-15.797 4.506-4.455 10.376-6.683 17.612-6.683 7.235 0 12.153 2.228 14.754 6.683 2.601 4.454 3.258 9.72 1.97 15.797-1.313 6.18-4.216 11.465-8.709 15.855-4.495 4.389-10.359 6.585-17.594 6.585zm14.755-22.441c.9-4.223.727-7.474-.521-9.753-1.249-2.278-3.483-3.418-6.701-3.418-3.22 0-5.936 1.14-8.15 3.418-2.215 2.279-3.772 5.53-4.673 9.753-.901 4.224-.729 7.48.521 9.771 1.248 2.292 3.481 3.438 6.701 3.438 3.219 0 5.935-1.146 8.149-3.438 2.214-2.29 3.771-5.547 4.674-9.771zm39.805-21.127h11.162l-.039 30.319 13.017-30.319h11.472l-21.128 42.1h-11.316l-.116-30.667-13.171 30.667h-11.433l-2.896-42.1h11.819l.154 30.203 12.475-30.203zm40.193 28.659c-.181 1.957.038 3.348.656 4.172 1.029 1.468 3.386 2.201 7.068 2.201 2.163 0 3.952-.321 5.369-.966 1.415-.643 2.265-1.608 2.549-2.896.257-1.236-.064-2.176-.966-2.819s-4.493-1.751-10.776-3.321c-4.506-1.185-7.545-2.666-9.115-4.442-1.597-1.751-2.034-4.273-1.313-7.57.823-3.888 3.057-7.229 6.701-10.022 3.644-2.794 8.232-4.191 13.77-4.191 5.253 0 9.308 1.05 12.166 3.148s3.991 5.723 3.399 10.872h-11.008c.128-1.415-.039-2.535-.502-3.36-.902-1.492-2.808-2.239-5.717-2.239-2.395 0-4.178.373-5.35 1.12s-1.86 1.622-2.066 2.626c-.283 1.262.064 2.176 1.043 2.742.952.593 4.558 1.609 10.814 3.052 4.146 1.03 7.094 2.588 8.845 4.673 1.726 2.112 2.253 4.751 1.584 7.918-.901 4.172-3.181 7.577-6.836 10.216-3.657 2.64-8.729 3.959-15.218 3.959-6.618 0-11.208-1.396-13.77-4.19-2.563-2.794-3.394-6.354-2.491-10.68h11.164zm46.627 21.513l1.391.077c1.055.052 2.085.013 3.09-.115 1.004-.13 1.893-.425 2.665-.889.746-.438 1.545-1.352 2.395-2.742s1.248-2.24 1.197-2.55l-6.103-43.953h12.243l2.588 31.053 15.296-31.053h11.702l-23.251 41.404c-4.48 7.982-7.731 12.933-9.753 14.851s-5.465 2.878-10.332 2.878c-.979 0-1.764-.007-2.355-.02-.593-.013-1.468-.058-2.627-.135l1.854-8.806zm58.653-6.604c-7.235 0-12.16-2.195-14.773-6.585-2.613-4.391-3.264-9.676-1.95-15.855 1.287-6.077 4.184-11.343 8.69-15.797 4.506-4.455 10.376-6.683 17.612-6.683 7.235 0 12.153 2.228 14.754 6.683 2.601 4.454 3.258 9.72 1.97 15.797-1.313 6.18-4.216 11.465-8.709 15.855-4.495 4.389-10.359 6.585-17.594 6.585zm14.755-22.441c.9-4.223.727-7.474-.521-9.753-1.249-2.278-3.483-3.418-6.701-3.418-3.22 0-5.936 1.14-8.15 3.418-2.215 2.279-3.772 5.53-4.673 9.753-.901 4.224-.729 7.48.521 9.771 1.248 2.292 3.481 3.438 6.701 3.438 3.219 0 5.935-1.146 8.149-3.438 2.214-2.29 3.771-5.547 4.674-9.771zm30.922-21.127l-5.369 25.375c-.515 2.396-.617 4.198-.309 5.408.541 2.137 2.279 3.205 5.214 3.205 3.76 0 6.656-1.519 8.69-4.558 1.082-1.647 1.905-3.823 2.473-6.527l4.866-22.903h11.162l-8.922 42.1h-10.699l1.236-5.948c-.129.129-.464.516-1.004 1.159-.541.644-1.146 1.21-1.815 1.699-2.061 1.545-3.959 2.601-5.697 3.167s-3.688.85-5.852.85c-6.231 0-9.952-2.24-11.162-6.721-.67-2.472-.489-6.115.541-10.931l5.368-25.375h11.279zm86.023 4.403c.824 1.571 1.19 3.187 1.101 4.848s-.534 4.371-1.332 8.13l-5.253 24.72h-11.239l5.407-25.607c.488-2.266.502-4.095.038-5.484-.593-1.957-2.292-2.936-5.098-2.936-2.91 0-5.324.972-7.242 2.916-1.919 1.944-3.264 4.719-4.036 8.323l-4.828 22.788h-10.97l12.051-56.738h10.97l-4.287 20.123c2.11-2.446 4.318-4.152 6.624-5.118 2.304-.966 4.615-1.448 6.933-1.448 2.601 0 4.866.451 6.798 1.352 1.929.9 3.385 2.277 4.363 4.131zm19.412 39.165c-7.235 0-12.16-2.195-14.773-6.585-2.613-4.391-3.264-9.676-1.95-15.855 1.287-6.077 4.184-11.343 8.69-15.797 4.506-4.455 10.376-6.683 17.612-6.683 7.235 0 12.153 2.228 14.754 6.683 2.601 4.454 3.258 9.72 1.97 15.797-1.313 6.18-4.216 11.465-8.709 15.855-4.494 4.389-10.359 6.585-17.594 6.585zm14.755-22.441c.9-4.223.727-7.474-.521-9.753-1.249-2.278-3.483-3.418-6.701-3.418-3.22 0-5.936 1.14-8.15 3.418-2.215 2.279-3.772 5.53-4.673 9.753-.901 4.224-.729 7.48.521 9.771 1.248 2.292 3.481 3.438 6.701 3.438 3.219 0 5.935-1.146 8.149-3.438 2.214-2.29 3.772-5.547 4.674-9.771zm39.806-21.127h11.162l-.039 30.319 13.017-30.319h11.472l-21.128 42.1h-11.316l-.116-30.667-13.171 30.667h-11.433l-2.896-42.1h11.819l.154 30.203 12.475-30.203z"/>
</svg>
