<svg xmlns="http://www.w3.org/2000/svg" width="114.333" height="180" viewBox="0 0 114.333 180" fill="#f1f1f1">
  <path d="M57.164 147.153c-.696 0-1.399-.207-2.011-.638l-18-12.666c-.968-.681-1.486-1.764-1.486-2.863 0-.697.207-1.4.638-2.013 1.112-1.582 3.296-1.961 4.876-.849l15.986 11.249 15.986-11.249c1.58-1.111 3.763-.733 4.876.849 1.112 1.58.732 3.764-.849 4.876l-17.933 12.619c-.306.226-.643.397-.996.513-.228.074-.461.124-.696.15h-.002c-.129.015-.259.022-.389.022zm0-25.549c-.696 0-1.399-.207-2.011-.638l-18-12.666c-.968-.681-1.486-1.764-1.486-2.863 0-.697.207-1.4.638-2.013 1.112-1.581 3.296-1.96 4.876-.849l15.986 11.249 15.986-11.249c1.58-1.111 3.763-.733 4.876.849 1.112 1.58.732 3.764-.849 4.876l-17.933 12.619c-.306.226-.643.397-.996.513-.228.074-.461.124-.696.15h-.002c-.129.015-.259.022-.389.022zm0-27.053c-.696 0-1.399-.207-2.011-.638l-18-12.666c-.968-.681-1.486-1.764-1.486-2.864 0-.696.207-1.4.638-2.013 1.112-1.581 3.296-1.961 4.876-.848l15.986 11.249 15.986-11.249c1.58-1.112 3.763-.733 4.876.848 1.112 1.581.732 3.764-.849 4.876l-17.932 12.62c-.306.226-.643.397-.996.513-.228.074-.461.124-.696.15h-.002c-.13.015-.26.022-.39.022zM57.167 63c-3.866 0-7-3.134-7-7V39.5c0-3.866 3.134-7 7-7s7 3.134 7 7V56c0 3.866-3.134 7-7 7z"/>
  <path d="M57.167 180c-14.627 0-28.911-5.841-40.22-16.446C6.335 153.604 0 140.624 0 128.834v-92C0 15.467 21.205 0 35.5 0h43.333c14.295 0 35.5 15.467 35.5 36.833v92c0 11.79-6.335 24.77-16.946 34.72C86.077 174.159 71.793 180 57.167 180zM35.5 11C26.049 11 11 22.823 11 36.833v92C11 146.914 32.303 169 57.166 169c24.863 0 46.166-22.086 46.166-40.166v-92c0-14.011-15.049-25.833-24.5-25.833H35.5z"/>
</svg>
